<svg xmlns="http://www.w3.org/2000/svg" viewBox="0 0 32 32" width="24" height="24" style="border-color: rgba(187,187,187,1);border-width: 0;border-style: solid" filter="none">
    
    <g>
    <path d="M15.111 15.118v-6.222c0-0.491 0.398-0.889 0.889-0.889h0.005c0.488 0.003 0.882 0.4 0.88 0.889l-0.032 6.222h6.259c0.491 0 0.889 0.398 0.889 0.889s-0.398 0.889-0.889 0.889h-6.268l-0.033 6.264c-0.002 0.469-0.383 0.847-0.852 0.847s-0.847-0.379-0.847-0.847v-6.264h-6.222c-0.491 0-0.889-0.398-0.889-0.889s0.398-0.889 0.889-0.889h6.222z" fill="rgba(15,64,245,1)"></path><path d="M16 28.444c6.873 0 12.444-5.572 12.444-12.444s-5.572-12.444-12.444-12.444c-6.873 0-12.444 5.572-12.444 12.444s5.572 12.444 12.444 12.444zM16 30.222c-7.855 0-14.222-6.367-14.222-14.222s6.367-14.222 14.222-14.222 14.222 6.367 14.222 14.222-6.367 14.222-14.222 14.222z" fill="rgba(15,64,245,1)"></path>
    </g>
  </svg>