<svg xmlns="http://www.w3.org/2000/svg" viewBox="0 0 32 32" width="24" height="24" style="border-color: rgba(187,187,187,1);border-width: 0;border-style: solid" filter="none">
    
    <g>
    <path d="M25.74 21.333c1.427 0 2.59 1.234 2.59 2.75 0 0.050-0.004 0.093-0.005 0.124 0.001 0.013 0.002 0.030 0.002 0.048 0 0.238-0.053 0.492-0.16 0.779-0.038 0.111-0.087 0.226-0.15 0.348-0.003 0.004-0.008 0.012-0.015 0.025-0.009 0.016-0.016 0.032-0.024 0.048-0.027 0.051-0.056 0.11-0.095 0.171-1.029 1.806-3.62 3.714-3.731 3.803-0.081 0.064-0.177 0.097-0.274 0.097s-0.191-0.031-0.272-0.094c-0.129-0.103-3.168-2.331-3.957-4.268-0.004-0.010-0.008-0.021-0.012-0.032-0.125-0.315-0.189-0.609-0.189-0.877 0-0.013 0.001-0.025 0.002-0.038-0.006-0.040-0.009-0.086-0.009-0.133v-0c0-1.517 1.162-2.75 2.59-2.75 0.704 0 1.371 0.312 1.855 0.842 0.482-0.531 1.149-0.842 1.854-0.842zM15.163 5.333c-1.689 0-3.115 1.125-3.57 2.667h7.141c-0.455-1.542-1.881-2.667-3.57-2.667zM17.979 25.774l0 0.001-0.001-0.004 0.001 0.003-0.002-0.004 0 0.001c0.008 0.020 0.008 0.020 0.021 0.056 0.139 0.34 0.314 0.67 0.525 1.001 0.342 0.537 0.776 1.075 1.287 1.616h-12.7c-0.982 0-1.778-0.796-1.778-1.778 0-0.037 0.001-0.074 0.003-0.111l1.056-16.889c0.059-0.937 0.836-1.667 1.774-1.667h1.598c0.487-2.504 2.672-4.401 5.308-4.444l0.091-0.001c2.677 0 4.907 1.912 5.399 4.444l2.153 0c0.939 0 1.716 0.73 1.774 1.667l0.621 9.936c-0.427 0.065-0.84 0.196-1.226 0.385-0.573-0.281-1.204-0.433-1.854-0.433-2.434 0-4.368 2.052-4.368 4.528 0 0.073 0.002 0.13 0.007 0.196 0.003 0.489 0.109 0.982 0.301 1.476l0.005 0.013-0.001-0.002c0.002 0.005 0.001 0.003-0 0l-0.003-0.008-0-0c0.001 0.002 0.004 0.009 0.010 0.025l0.001 0.003-0.001-0.003-0.001-0.003-0.001-0.003-0.002-0.004z" fill="rgba(79,79,79,1)"></path>
    </g>
  </svg>