<svg xmlns="http://www.w3.org/2000/svg" viewBox="0 0 32 32" width="24" height="24" style="border-color: rgba(187,187,187,1);border-width: 0;border-style: solid" filter="none">
    
    <g>
    <path d="M19.603 3.556c3.436 0 6.222 2.786 6.222 6.222 0 2.495-1.468 4.647-3.588 5.639v-0c4.593 1.189 7.985 5.362 7.985 10.327v0c0 0.491-0.398 0.889-0.889 0.889l-19.57-0c-0.484-0.008-0.874-0.403-0.874-0.889l0.001-0.176c0.080-4.909 3.476-9.012 8.045-10.166l0 0c-2.102-0.999-3.555-3.141-3.555-5.623 0-3.436 2.786-6.222 6.222-6.222zM12.484 5.624c0.29 0 0.575 0.024 0.853 0.070-0.812 1.156-1.289 2.564-1.289 4.084 0 2.106 0.924 4.045 2.446 5.368-3.871 1.686-6.575 5.402-6.904 9.708l-3.305-0c-0.403-0.007-0.728-0.336-0.728-0.741l0.001-0.147c0.066-4.091 2.896-7.51 6.704-8.472l0 0c-1.751-0.832-2.962-2.618-2.962-4.686 0-2.864 2.322-5.185 5.185-5.185z" fill="rgba(79,79,79,1)"></path>
    </g>
  </svg>