<svg xmlns="http://www.w3.org/2000/svg" viewBox="0 0 32 32" width="24" height="24" style="border-color: rgba(187,187,187,1);border-width: 0;border-style: solid" filter="none">
    
    <g>
    <path d="M2 8v16h8l8 8v-32l-8 8h-8zM11.4 9.4l4.6-4.6v22.4l-5.2-5.2h-6.8v-12h6.8l0.6-0.6zM21 8.6l-0.6 1.8c2.4 0.8 4 3 4 5.6 0 2.4-1.6 4.6-4 5.6l0.6 1.8c3.2-1.2 5.2-4 5.2-7.4s-2-6.2-5.2-7.4z" fill="rgba(16,16,16,1)"></path><path d="M25.8 6l-1.2 1.6c2.6 2 4.2 5 4.2 8.4s-1.6 6.4-4.2 8.4l1.2 1.6c3.2-2.4 5-6 5-10s-1.8-7.6-5-10z" fill="rgba(16,16,16,1)"></path>
    </g>
  </svg>