<svg xmlns="http://www.w3.org/2000/svg" viewBox="0 0 32 32" width="24" height="24" style="border-color: rgba(187,187,187,1);border-width: 0;border-style: solid" filter="none">
    
    <g>
    <path d="M8.607 25.333l-5.94 4.667v-24.667c0-0.736 0.597-1.333 1.333-1.333v0h24c0.736 0 1.333 0.597 1.333 1.333v0 18.667c0 0.736-0.597 1.333-1.333 1.333v0h-19.393zM14.667 18.667v2.667h2.667v-2.667h-2.667zM11.423 11.751l2.616 0.524c0.189-0.923 0.995-1.608 1.961-1.608 1.105 0 2 0.895 2 2s-0.895 2-2 2h-1.333v2.667h1.333c2.577-0.001 4.665-2.090 4.665-4.667s-2.089-4.667-4.667-4.667c-2.253 0-4.133 1.597-4.571 3.721l-0.005 0.030z" fill="rgba(79,79,79,1)"></path>
    </g>
  </svg>