<svg xmlns="http://www.w3.org/2000/svg" viewBox="0 0 32 32" width="24" height="24" style="border-color: rgba(187,187,187,1);border-width: 0;border-style: solid" filter="none">
    
    <g>
    <path d="M27.712 10.624h-15.936s0.192-0.096 0.384-0.16c5.216-1.408 10.4-2.816 15.584-4.224 0.224-0.032 0.352-0.288 0.32-0.512-0.32-1.12-0.64-2.24-0.928-3.36-0.064-0.224-0.192-0.384-0.288-0.384-0.064 0.032-0.096 0.032-0.16 0.064l-8.832 2.4c-4.576 1.216-9.152 2.464-13.76 3.712-0.192 0.032-0.256 0.128-0.256 0.32v21.088c0 0.256 0.192 0.416 0.416 0.416h23.488c0.224 0 0.416-0.16 0.416-0.416v-15.040s-0.032-0.192-0.032-0.416v-3.040c0-0.256-0.16-0.448-0.416-0.448zM23.36 11.52h2.624c0.224 0 0.416 0.16 0.416 0.416v1.76c-0.004 0.228-0.188 0.412-0.416 0.416h-3.488c-0.224 0-0.352-0.192-0.288-0.416 0.224-0.608 0.416-1.184 0.608-1.792 0.064-0.224 0.32-0.384 0.544-0.384zM16.928 11.552c0.192-0.16 0.608-0.032 0.896-0.032h2.080c0.224 0 0.416 0.032 0.384 0.096v0.096c-0.133 0.313-0.383 1.047-0.62 1.787l-0.116 0.421c-0.064 0.128-0.096 0.192-0.256 0.192h-3.232c-0.032-0.032 0-0.192 0.064-0.416 0.16-0.448 0.288-0.864 0.448-1.312 0.096-0.288 0.16-0.672 0.352-0.832zM14.144 11.904l-0.608 1.792c-0.082 0.232-0.291 0.398-0.542 0.416l-0.002 0h-2.624c-0.256 0-0.384-0.192-0.288-0.416l0.288-0.864c0.128-0.384 0.224-0.768 0.384-1.152 0.032-0.064 0.128-0.16 0.192-0.16 0.96-0.032 1.92-0.032 2.912-0.032 0.224 0 0.352 0.192 0.288 0.416zM25.664 3.648l0.48 1.696c0.011 0.035 0.017 0.074 0.017 0.116 0 0.189-0.128 0.348-0.302 0.396l-0.003 0.001c-0.448 0.128-0.864 0.256-1.28 0.352-0.512 0.128-0.992 0.288-1.472 0.384-0.096 0.032-0.224 0-0.256-0.064-0.416-0.576-0.8-1.184-1.216-1.792-0.128-0.192-0.064-0.416 0.16-0.448l3.392-0.928c0.224-0.064 0.448 0.064 0.48 0.288zM18.656 5.12c0.096 0 0.256 0.032 0.288 0.096 0.416 0.576 0.8 1.184 1.216 1.792 0.128 0.192 0.064 0.384-0.16 0.448-1.393 0.346-2.249 0.587-3.099 0.844l0.539-0.14c-0.027 0.004-0.059 0.006-0.091 0.006-0.212 0-0.399-0.103-0.516-0.261l-0.001-0.002c-0.352-0.512-0.704-1.056-1.056-1.568-0.128-0.192-0.064-0.416 0.16-0.48 0.416-0.096 0.832-0.224 1.248-0.32 0.48-0.128 0.992-0.288 1.472-0.416zM13.088 6.784c0.384 0.576 0.8 1.184 1.216 1.824 0.128 0.16 0.032 0.384-0.192 0.448-0.512 0.128-0.992 0.256-1.504 0.416-0.416 0.096-0.832 0.224-1.248 0.32-0.064 0.032-0.224 0-0.256-0.064-0.448-0.704-0.928-1.376-1.376-2.080v-0.032c-0.032-0.032 0.16-0.096 0.384-0.16 0.928-0.256 1.824-0.512 2.752-0.736 0.064-0.032 0.192 0 0.224 0.064zM6.912 9.76c0.704 0 1.312 0.608 1.28 1.344 0 0.672-0.608 1.28-1.312 1.28-0.704-0.032-1.28-0.64-1.28-1.312 0-0.736 0.576-1.312 1.312-1.312z" fill="rgba(79,79,79,1)"></path>
    </g>
  </svg>