<svg xmlns="http://www.w3.org/2000/svg" viewBox="0 0 32 32" width="24" height="24" style="border-color: rgba(187,187,187,1);border-width: 0;border-style: solid" filter="none">
    
    <g>
    <path d="M4.896 1.984c-0.64 0-0.832 0.224-0.832 0.896v15.744c0 0.704 0.192 0.896 0.864 0.896h22.176c0.64 0 0.832-0.224 0.832-0.864v-15.776c0-0.672-0.192-0.864-0.832-0.864-7.392-0.032-14.816-0.032-22.208-0.032zM29.28 20.672c-0.128-0.032-0.256-0.032-0.384-0.032h-26.144c-0.276 0.054-0.481 0.294-0.481 0.581 0 0.009 0 0.019 0.001 0.028l-0-0.001c0 0.288 0.16 0.544 0.448 0.608 0.16 0.032 0.32 0.032 0.448 0.032h12c-0.608 0.864-1.248 1.696-1.856 2.56-1.088 1.504-2.208 3.008-3.296 4.544-0.256 0.352-0.192 0.704 0.16 0.928 0.32 0.16 0.704 0.096 0.96-0.256 0.16-0.192 0.32-0.384 0.448-0.608 1.472-1.984 2.912-4 4.416-6.048 0.096 0.16 0.192 0.256 0.256 0.384 0.693 0.874 2.185 2.895 3.66 4.929l0.884 1.279c0.288 0.384 0.672 0.512 1.024 0.32 0.352-0.224 0.416-0.608 0.128-0.992 5.275 7.624 3.593 5.331 1.914 3.037l-7.034-10.077h12c0.16 0 0.32 0 0.48-0.064 0.288-0.064 0.416-0.288 0.416-0.576 0-0.32-0.16-0.512-0.448-0.576z" fill="rgba(79,79,79,1)"></path>
    </g>
  </svg>